<?xml version="1.0" encoding="UTF-8"?>
<svg id="Capa_2" data-name="Capa 2" xmlns="http://www.w3.org/2000/svg" xmlns:xlink="http://www.w3.org/1999/xlink" viewBox="0 0 957.07 119.04">
  <defs>
    <style>
      .cls-1 {
        fill: url(#Degradado_sin_nombre_426);
      }

      .cls-2 {
        fill: url(#Degradado_sin_nombre_426-2);
      }

      .cls-3 {
        fill: url(#Degradado_sin_nombre_27);
      }
    </style>
    <linearGradient id="Degradado_sin_nombre_27" data-name="Degradado sin nombre 27" x1="279.2" y1="57.18" x2="957.07" y2="57.18" gradientUnits="userSpaceOnUse">
      <stop offset=".1" stop-color="#001a2a"/>
      <stop offset=".8" stop-color="#00b0bd"/>
    </linearGradient>
    <linearGradient id="Degradado_sin_nombre_426" data-name="Degradado sin nombre 426" x1="0" y1="93.95" x2="220.52" y2="93.95" gradientUnits="userSpaceOnUse">
      <stop offset=".2" stop-color="#00b0bd"/>
      <stop offset=".9" stop-color="#001923"/>
    </linearGradient>
    <linearGradient id="Degradado_sin_nombre_426-2" data-name="Degradado sin nombre 426" x1="0" y1="26.01" x2="220.52" y2="26.01" xlink:href="#Degradado_sin_nombre_426"/>
  </defs>
  <g id="Capa_1-2" data-name="Capa 1">
    <g>
      <path class="cls-3" d="M629.62,6.83h20.35l32.04,60.14h1.67l32.2-60.14h20.2v106.31h-15.64V29.31h-1.82l-29.31,55.28h-13.36l-29.16-55.28h-1.67v83.83h-15.49V6.83ZM763.49,47.54h-17.47v-13.97h32.65v79.58h-15.19V47.54ZM760.46,10.33c0-5.77,4.86-10.33,10.63-10.33s10.48,4.56,10.48,10.33-4.71,10.33-10.48,10.33-10.63-4.4-10.63-10.33ZM794.93,33.56h11.85c2.13,0,3.19,1.06,3.19,3.19v7.44h1.82c6.53-7.75,14.28-11.85,25.21-11.85,17.62,0,29.16,11.24,29.16,31.13v49.66h-15.19v-45.71c0-14.12-7.29-21.26-18.68-21.26-12,0-22.17,7.59-22.17,23.84v43.13h-15.19V33.56ZM876.88,73.35c0-24.3,16.55-41,37.21-41,11.09,0,20.65,4.86,25.97,11.85h1.82V2.28h15.19v110.87h-11.85c-2.13,0-3.34-1.06-3.34-3.19v-7.44h-1.67c-6.68,8.2-15.04,11.85-26.12,11.85-20.65,0-37.21-16.71-37.21-41ZM942.19,73.35c0-16.55-10.33-27.64-24.91-27.64s-25.06,11.09-25.06,27.64,10.48,27.49,25.06,27.49,24.91-11.09,24.91-27.49ZM279.2,6.83h15.95v106.31h-15.95V6.83ZM312.74,33.56h11.85c2.13,0,3.19,1.06,3.19,3.19v7.44h1.82c6.53-7.75,14.28-11.85,25.21-11.85,17.62,0,29.16,11.24,29.16,31.13v49.66h-15.19v-45.71c0-14.12-7.29-21.26-18.68-21.26-12,0-22.17,7.59-22.17,23.84v43.13h-15.19V33.56ZM394.7,73.35c0-24.3,16.55-41,37.21-41,11.09,0,20.65,4.86,25.97,11.85h1.82V2.28h15.19v110.87h-11.85c-2.13,0-3.34-1.06-3.34-3.19v-7.44h-1.67c-6.68,8.2-15.04,11.85-26.12,11.85-20.65,0-37.21-16.71-37.21-41ZM460,73.35c0-16.55-10.33-27.64-24.91-27.64s-25.06,11.09-25.06,27.64,10.48,27.49,25.06,27.49,24.91-11.09,24.91-27.49ZM491.06,33.56h11.85c2.13,0,3.19,1.06,3.19,3.19v7.44h1.82c4.71-7.14,11.09-10.63,20.2-10.63h8.81v13.97h-9.87c-13.97,0-20.81,8.66-20.81,25.67v39.94h-15.19V33.56ZM539.55,90.36c0-15.04,11.24-23.84,30.07-23.84h21.87c2.28,0,3.49-1.21,3.49-3.49v-.91c0-10.78-6.53-17.01-18.38-17.01-10.93,0-18.07,5.16-19.29,13.52h-15.79c1.67-16.25,15.04-26.27,35.23-26.27,21.26,0,33.26,11.24,33.26,30.98v49.81h-11.69c-1.97,0-3.19-1.06-3.19-3.19v-7.44h-1.67c-6.38,7.75-14.58,11.85-26.12,11.85-16.86,0-27.79-9.72-27.79-24ZM594.99,79.88v-2.28h-24.75c-9.87,0-15.49,4.25-15.49,12s5.77,12.61,15.64,12.61c14.43,0,24.6-9.57,24.6-22.33Z"/>
      <g>
        <path class="cls-1" d="M220.52,117.32l-6.5,1.72s-79.55-24.24-103.76-25.9c-24.21,1.65-103.76,25.9-103.76,25.9L0,117.32s69.18-47.54,110.26-48.46c41.08.92,110.26,48.46,110.26,48.46Z"/>
        <path class="cls-2" d="M220.52,2.64l-6.5-1.72s-79.55,24.24-103.76,25.9C86.05,25.17,6.5.92,6.5.92L0,2.64s69.18,47.54,110.26,48.46c41.08-.92,110.26-48.46,110.26-48.46Z"/>
      </g>
    </g>
  </g>
</svg>